<svg xmlns="http://www.w3.org/2000/svg" viewBox="0 0 28.12 34.84"><defs><style>.cls-1{fill:#fff;}</style></defs><title>protoquickwebsiteAsset 12edmmachine</title><g id="Layer_2" data-name="Layer 2"><g id="Layer_1-2" data-name="Layer 1"><path class="cls-1" d="M0,33.72c2.78-.66,5.55-.32,8.62-1L3.15,29.12,3.21,29l7.21,1.48-1.7-2.94.14-.12,3.56,1.46c-.57-2-4.3-5.31-4.54-8.58.08,0-.27-.41.23-.06.59,1.77,4.71,4,5.59,5.15,0,0,.06-1.37.11-1.37V19.22c-.58-.79-1-1.4-1.46-2a3,3,0,0,0-.66-.59c-1.78-1.21-3.54-2.47-5.38-3.58A2.31,2.31,0,0,1,5,10.64c.07-.75,0-1.51,0-2.33-.42,0-.77-.06-1.11-.12-1.26-.2-1.86-1-1.42-2.76a6.54,6.54,0,0,0,0-3C2-.11,2.92-.38,5.78.36A35.32,35.32,0,0,0,23.7.25c2.08-.55,2.94-.2,2.8,1.34a14.47,14.47,0,0,0-.09,2.15c.2,3.59.29,4.27-2,4.48l-.64.09c0,.91,0,1.82,0,2.72,0,1.17-.52,1.82-2.16,2.38A6.88,6.88,0,0,0,18.7,15.5c-.76.88-2.27,1.08-2.47,2.5,0,.07-.13.19-.13.19-1.57.56-1,1.89-1.07,3,0,2,0,4,0,6a3.07,3.07,0,0,0,.42,1.59L26,24c.19.1-.95.68-.75.78l-7.81,5.69,4,.2.12.24-1.23,1.39,7.73,2.43,0,.15H0C0,34.77,0,33.79,0,33.72ZM22.79,8.49c-.56,0-1-.06-1.49-.06-4.27,0-8.54,0-12.81,0-2.81,0-2.33-.25-2.37,1.77,0,.83.86,1.54,2,1.55,4.19,0,8.38,0,12.57,0,.94,0,1.89-.37,2-1.17A11.48,11.48,0,0,0,22.79,8.49Zm-2.22,4.93-.12-.19H8c1.92,1.29,3.5,2.5,5.23,3.43a2.93,2.93,0,0,0,2.41,0C17.35,15.72,18.93,14.51,20.57,13.42ZM13.28,27.08l.26,4.21c-.91-.67-.65-.22-1.39-.77-.06,0-1.12-.91-1.19-.87.4.78,0,.59.5,1.55-1.42-.28-1.83.45-3,.22l-.06.17L11,33.4l-2.3.68.05.13H14C13.69,31.78,14.34,29.38,13.28,27.08Zm8.28,7.12.05-.14L18.39,33l1.92-1.66c-.84.09-1,.16-1.06.09-1.35.33-1.74.37-3.23.74.41-1.21,2.67-4.91.83-3a3.24,3.24,0,0,0-1.65.06,25.78,25.78,0,0,0,0,5ZM13.42,17.06c.53,1.6,1,3.43,1.25,1.94a3.94,3.94,0,0,1,.53-1.46.52.52,0,0,1-.23-.48Z"/></g></g></svg>