<svg xmlns="http://www.w3.org/2000/svg" xmlns:xlink="http://www.w3.org/1999/xlink" viewBox="0 0 215.29 70.48"><defs><style>.cls-1{fill:none;}.cls-2{clip-path:url(#clip-path);}.cls-3{clip-path:url(#clip-path-2);}.cls-4{clip-path:url(#clip-path-3);}.cls-5{clip-path:url(#clip-path-4);}.cls-6{clip-path:url(#clip-path-5);}.cls-7{clip-path:url(#clip-path-6);}.cls-8{clip-path:url(#clip-path-7);}.cls-9{clip-path:url(#clip-path-8);}.cls-10{clip-path:url(#clip-path-9);}.cls-11{clip-path:url(#clip-path-10);}.cls-12{font-size:8px;font-family:TradeGothicNextLTPro-Rg, Trade Gothic Next LT Pro;}.cls-13{letter-spacing:-0.04em;}.cls-14{letter-spacing:-0.04em;}</style><clipPath id="clip-path" transform="translate(0 0)"><path class="cls-1" d="M37.93,33.7c3.12,0,6.16,0,9.21,0a13.39,13.39,0,0,1,1.88.18,4.57,4.57,0,0,1,4,4A7.23,7.23,0,0,1,53,40.17a4.65,4.65,0,0,1-3.59,3.68c-.3.09-.61.15-1,.25a3.31,3.31,0,0,0,.32.28,7.89,7.89,0,0,1,2.39,2.38c1.17,1.81,2.33,3.64,3.54,5.54H50.09L49,50.6c-1-1.42-1.94-2.82-2.87-4.26a3.58,3.58,0,0,0-3.42-1.8c-.3,0-.6,0-1,0-.05.86,0,1.71,0,2.55s0,1.76,0,2.65v2.58H37.93Zm3.78,7.86a45.38,45.38,0,0,0,5.8-.17,1.91,1.91,0,0,0,1.65-1.55,2.19,2.19,0,0,0-2.14-3c-1.71-.07-3.42,0-5.13-.06-.06,0-.13.06-.23.11q0,2.1,0,4.21A4,4,0,0,0,41.71,41.56Z"/></clipPath><clipPath id="clip-path-2" transform="translate(0 0)"><path class="cls-1" d="M74,43.07a11.91,11.91,0,0,1-1,4.85,8,8,0,0,1-6.81,4.7,10.81,10.81,0,0,1-3.68-.19,7.88,7.88,0,0,1-6.06-5.62,12.28,12.28,0,0,1,.11-7.87,7.85,7.85,0,0,1,7-5.54,10.24,10.24,0,0,1,5.4.7,8.14,8.14,0,0,1,4.81,6.35C73.91,41.31,73.94,42.2,74,43.07ZM59.77,43c.06.62.09,1.25.19,1.87a7.1,7.1,0,0,0,.39,1.45,4.88,4.88,0,0,0,4.85,3.15A4.8,4.8,0,0,0,69.7,46a10.25,10.25,0,0,0,.21-5.22,4.79,4.79,0,0,0-5.7-4.12,4.51,4.51,0,0,0-3.83,2.9A9.12,9.12,0,0,0,59.77,43Z"/></clipPath><clipPath id="clip-path-3" transform="translate(0 0)"><path class="cls-1" d="M109.75,43a12.48,12.48,0,0,1-.87,4.52,8,8,0,0,1-7.08,5.1A10.78,10.78,0,0,1,98,52.37a7.73,7.73,0,0,1-5.6-4.94,12.08,12.08,0,0,1,.05-8.93,7.77,7.77,0,0,1,6.82-5.1,11,11,0,0,1,4,.25,8,8,0,0,1,6,6.16A30.39,30.39,0,0,1,109.75,43Zm-3.92-.37c0-.32-.07-.95-.16-1.57A4.85,4.85,0,0,0,100,36.6a4.51,4.51,0,0,0-4,3.09,10,10,0,0,0-.37,5.14,7,7,0,0,0,.51,1.73,4.94,4.94,0,0,0,9.1-.2A10.16,10.16,0,0,0,105.82,42.63Z"/></clipPath><clipPath id="clip-path-4" transform="translate(0 0)"><path class="cls-1" d="M90.39,33.72v3.06H84.94V52.3H81.17V36.81H75.66V33.72Z"/></clipPath><clipPath id="clip-path-5" transform="translate(0 0)"><path class="cls-1" d="M18.91,52.48c.13,0,0-7.16,0-7.58,0,0,0-.39-.23-.45l-.51,0c0-.18.08-2.57,0-3.11,0-.14-.46-.15-.57-.15s.09-1.37,0-1.61c0,0,1.08.07,1.36.07,4.41.23,9.6,1.24,13-1.45,4.61-3.69,4.79-8.87,2.45-12.22-1.06-1.51-4.1-3.24-11.51-3.15l-.09,0c-2,0-4.52.09-6.25.94-.32.16-.3,1-.45,1a9.92,9.92,0,0,1-1.71.16c0,.58-.16,1.58-.14,2.05a1.71,1.71,0,0,1,0,.27c.18.06,2.9,0,3.66,0,0-.5,0-1.32,1.73-1.46a32.43,32.43,0,0,1,5.74,0,4,4,0,0,1,2.83,1.52,5,5,0,0,1,1,3.17,8.33,8.33,0,0,1-.57,3.39,4.18,4.18,0,0,1-3.42,2.56,29.69,29.69,0,0,1-8.69-.25V29.7H14.8v6.81s-.59-.28-.58.46c0,.15.61,2.22.7,2.39,0,0,.18.05.12.19s.14,1.6,0,1.61-.57,0-.58.15c0,.54,0,2.93,0,3.11l-.52,0c-.23.06-.24.43-.24.45,0,.42-.13,7.56,0,7.58s1.22,0,2.63,0Z"/></clipPath><clipPath id="clip-path-6" transform="translate(0 0)"><path class="cls-1" d="M123.11,52.55c-1.06,0-2.09.09-3.11,0a8.78,8.78,0,0,1-7.76-7,13.08,13.08,0,0,1,3.61-12.78,10.63,10.63,0,0,1,7.49-3.1,9.13,9.13,0,0,1,5.46,1.44,9.28,9.28,0,0,1,4.07,6.46,13.61,13.61,0,0,1-1.59,9.33,12.31,12.31,0,0,1-4.38,4.4l-.44.28s0,0,0,.06c.31,1.64,1.17,2.62,2.51,2.82a5.2,5.2,0,0,0,3.36-.56l.54-.28c.17.95.17,1-.55,1.42a7.15,7.15,0,0,1-5.4,1.14,4.43,4.43,0,0,1-3.64-3.31C123.21,52.79,123.18,52.72,123.11,52.55Zm2.45-3.11c.1-.08.19-.14.28-.23a7.54,7.54,0,0,0,1.74-2.63,20.46,20.46,0,0,0,1.5-9.68,10.23,10.23,0,0,0-.58-2.56,4.68,4.68,0,0,0-2.79-3.09,5.47,5.47,0,0,0-5.76,1.13,8.72,8.72,0,0,0-2.05,2.69A19.31,19.31,0,0,0,115.85,45a6.55,6.55,0,0,0,.73,2.84,2.73,2.73,0,0,0,.3-.11,9.84,9.84,0,0,1,3.43-1.08c2.18-.24,4.22.38,5.14,2.64A.82.82,0,0,0,125.56,49.43Zm-8.47-.56a4.57,4.57,0,0,0,5.87,2.2,2.92,2.92,0,0,0-1.71-2.54A4.77,4.77,0,0,0,117.09,48.87Z"/></clipPath><clipPath id="clip-path-7" transform="translate(0 0)"><path class="cls-1" d="M211.06,52.25h-8.51V51.18c.28,0,.57,0,.86-.08.73-.11,1-.44.77-1.15a6.2,6.2,0,0,0-.43-1.2,63.55,63.55,0,0,0-4.32-6.89c-.56.46-1.09.87-1.59,1.32a1.19,1.19,0,0,0-.32.65q-.47,2.94-.9,5.89a1,1,0,0,0,.81,1.24c.41.11.84.15,1.32.24v1.05h-8.23V51.19l.88-.11a1.54,1.54,0,0,0,1.41-1.27c.14-.66.28-1.33.39-2q1.21-7.29,2.4-14.59a5.87,5.87,0,0,0,.06-.9,1,1,0,0,0-.94-1.14c-.34-.07-.69-.11-1.07-.17V30h8v1c-.27,0-.54.11-.81.14a1.53,1.53,0,0,0-1.45,1.31c-.14.66-.26,1.33-.37,2q-.56,3.39-1.11,6.77a1.21,1.21,0,0,0,0,.27,6.74,6.74,0,0,0,.55-.43,75.78,75.78,0,0,0,6.38-6.75,15.39,15.39,0,0,0,1.22-1.72c.49-.83.3-1.22-.63-1.46l-.45-.13c0-.18,0-.35,0-.52s0-.34,0-.51h6v1a5.32,5.32,0,0,0-2.86,1.85c-1.57,1.64-3.09,3.32-4.63,5-.53.57-1.08,1.12-1.65,1.71.13.2.24.39.37.57a89.24,89.24,0,0,1,5.5,8.84l.33.59a2.83,2.83,0,0,0,2.67,1.65,1.4,1.4,0,0,1,.25,0Z"/></clipPath><clipPath id="clip-path-8" transform="translate(0 0)"><path class="cls-1" d="M137.5,31V30l0-.06.06,0,.15,0,8,.1v1c-.32,0-.66.1-1,.14a1.52,1.52,0,0,0-1.49,1.34c-.19,1-.39,2.07-.56,3.12-.49,2.93-1,5.85-1.46,8.78a17.41,17.41,0,0,0-.26,2.85,3.51,3.51,0,0,0,2.9,3.64,6.85,6.85,0,0,0,5.13-.56,5.23,5.23,0,0,0,2.3-2.62,19.52,19.52,0,0,0,1.19-4.59c.52-3.2,1-6.41,1.5-9.62a9.85,9.85,0,0,0,.12-1.2.87.87,0,0,0-.78-1c-.51-.12-1-.17-1.61-.26V30H158v1l-.84.14a1.58,1.58,0,0,0-1.57,1.46c-.14.64-.22,1.29-.33,1.93-.55,3.37-1.1,6.75-1.66,10.12a13.85,13.85,0,0,1-1.07,3.45,7.07,7.07,0,0,1-5.4,4.25,12,12,0,0,1-6.33-.33,4.86,4.86,0,0,1-3.52-5,35.17,35.17,0,0,1,.53-4.57c.52-3.2,1.1-6.4,1.65-9.59a3.75,3.75,0,0,0,.06-.52,1,1,0,0,0-.9-1.17C138.27,31.1,137.9,31.07,137.5,31Z"/></clipPath><clipPath id="clip-path-9" transform="translate(0 0)"><path class="cls-1" d="M166.46,51.21v1h-8.25V51.19l.69-.06a1.63,1.63,0,0,0,1.67-1.46c.12-.51.21-1,.29-1.56q1.18-7.22,2.36-14.45a11.38,11.38,0,0,0,.14-1.35.93.93,0,0,0-.86-1.12c-.39-.09-.79-.12-1.2-.19V30h8.2v1c-.28,0-.55.11-.82.14a1.63,1.63,0,0,0-1.56,1.48c-.17.89-.32,1.78-.46,2.68q-1,6.36-2.08,12.73a17.05,17.05,0,0,0-.2,1.87c0,.66.16.9.81,1.08C165.58,51.09,166,51.13,166.46,51.21Z"/></clipPath><clipPath id="clip-path-10" transform="translate(0 0)"><path class="cls-1" d="M188.78,32l.49-1h1l-1.11,6.93h-1l.06-1.24a6.28,6.28,0,0,0-.36-2.67,4.48,4.48,0,0,0-4-3,6.73,6.73,0,0,0-6.39,3,12.21,12.21,0,0,0-2.09,4.89,18.92,18.92,0,0,0-.23,6.83,6.58,6.58,0,0,0,2.12,4.07A5.09,5.09,0,0,0,180.09,51a6.72,6.72,0,0,0,6.86-3.32c.27-.42.51-.86.8-1.37l.89.43a9.67,9.67,0,0,1-3,4.06,8.85,8.85,0,0,1-6.3,1.83,9.61,9.61,0,0,1-4.46-1.27,8.36,8.36,0,0,1-4-6.11A14.78,14.78,0,0,1,172,36.51a11.16,11.16,0,0,1,7.66-6.62,9.36,9.36,0,0,1,6.7.54A27.29,27.29,0,0,1,188.78,32Z"/></clipPath><image id="image" width="640" height="480" xlink:href="../Desktop2017-july/Proto/6296.jpg"/><image id="image-2" width="299" height="334" xlink:href="../Desktop2017-july/Proto/redanodize2.png"/><image id="image-3" width="424" height="334" xlink:href="../Desktop2017-july/Proto/redanodize3.png"/></defs><title>protoquickwebsiteAsset 11</title><g id="Layer_2" data-name="Layer 2"><g id="Layer_1-2" data-name="Layer 1"><g class="cls-2"><use transform="translate(0 0.4) scale(0.14)" xlink:href="#image"/></g><g class="cls-3"><use transform="translate(0 0.4) scale(0.14)" xlink:href="#image"/></g><g class="cls-4"><use transform="translate(38.61) scale(0.14)" xlink:href="#image"/></g><g class="cls-5"><use transform="translate(18.47 0.4) scale(0.14)" xlink:href="#image"/></g><g class="cls-6"><use transform="translate(0 0.4) scale(0.14)" xlink:href="#image"/></g><g class="cls-7"><image width="1099" height="334" transform="translate(109.39 26.73) scale(0.09)" xlink:href="../Desktop2017-july/Proto/redanodize.png"/></g><g class="cls-8"><use transform="translate(177.62 24.35) scale(0.09)" xlink:href="#image-3"/></g><g class="cls-9"><use transform="translate(134.38 25.32) scale(0.09)" xlink:href="#image-2"/></g><g class="cls-10"><use transform="translate(157.4 25.32) scale(0.09)" xlink:href="#image-2"/></g><g class="cls-11"><use transform="translate(169.96 22.81) scale(0.09)" xlink:href="#image-3"/></g><text class="cls-12" transform="translate(13.01 67.71)">Machine Shop<tspan class="cls-13" x="49.42" y="0">.</tspan><tspan x="51.35" y="0" xml:space="preserve"> Injection Molding</tspan><tspan class="cls-13" x="112.66" y="0">.</tspan><tspan x="114.59" y="0" xml:space="preserve"> Engineering Consulting</tspan><tspan class="cls-14" x="195.66" y="0">.</tspan></text></g></g></svg>