<?xml version="1.0" standalone="no"?>
<!DOCTYPE svg PUBLIC "-//W3C//DTD SVG 20010904//EN"
 "http://www.w3.org/TR/2001/REC-SVG-20010904/DTD/svg10.dtd">
<svg version="1.0" xmlns="http://www.w3.org/2000/svg"
 width="512.000000pt" height="512.000000pt" viewBox="0 0 512.000000 512.000000"
 preserveAspectRatio="xMidYMid meet">
<metadata>
Created by potrace 1.11, written by Peter Selinger 2001-2013
</metadata>
<g transform="translate(0.000000,512.000000) scale(0.100000,-0.100000)"
fill="#000000" stroke="none">
<path d="M1355 4074 c-152 -15 -240 -29 -308 -50 -78 -25 -96 -40 -112 -94
-11 -35 -21 -40 -97 -40 l-66 0 -6 -37 c-3 -21 -8 -71 -12 -111 l-6 -72 168 2
169 3 3 32 c4 39 46 78 100 93 59 16 394 24 512 12 189 -20 272 -61 347 -171
61 -89 77 -150 76 -301 0 -149 -26 -251 -87 -343 -82 -124 -160 -162 -364
-179 -150 -12 -479 -5 -582 11 -36 6 -80 13 -97 16 l-33 6 0 299 0 300 -75 0
-75 0 0 -310 c0 -297 -1 -310 -19 -310 -43 0 -46 -24 -16 -135 15 -57 33 -114
39 -127 6 -13 13 -56 15 -96 l2 -72 -30 -6 -31 -6 0 -143 0 -142 -29 -6 c-18
-4 -31 -14 -35 -29 -3 -13 -6 -177 -6 -365 l0 -343 239 0 239 0 7 63 c4 34 3
197 -2 362 l-8 300 -33 10 -34 10 7 137 8 138 -32 11 c-31 11 -31 12 -31 80
l0 69 68 0 c37 0 151 -7 252 -15 279 -24 540 -22 667 4 92 19 169 45 216 71
15 9 17 5 17 -44 0 -154 42 -414 86 -538 120 -334 382 -578 713 -665 83 -22
125 -27 316 -32 l219 -6 28 -73 c72 -189 207 -305 403 -347 102 -21 265 -19
361 5 93 23 287 116 334 160 30 28 32 34 27 76 -2 25 -7 47 -10 50 -3 3 -36
-10 -74 -30 -108 -54 -179 -69 -308 -64 -83 3 -121 10 -156 25 -59 26 -123 84
-156 140 -29 50 -66 160 -58 174 4 5 50 38 103 73 387 256 613 631 673 1116
14 114 6 337 -16 465 -67 386 -272 674 -594 835 -217 109 -526 135 -822 70
-208 -45 -409 -154 -576 -313 -40 -39 -75 -68 -76 -66 -1 2 -22 42 -45 89 -47
95 -75 130 -145 183 -107 81 -270 137 -507 173 -91 14 -553 27 -645 18z m2488
-213 c110 -29 183 -68 253 -136 92 -91 153 -215 200 -410 38 -158 37 -513 -1
-754 -44 -273 -145 -560 -255 -722 -52 -75 -127 -152 -140 -144 -6 3 -22 32
-37 63 -35 73 -132 171 -203 205 -188 92 -498 69 -740 -53 -33 -17 -64 -30
-70 -30 -16 0 -56 92 -77 175 -25 99 -25 472 0 630 50 317 167 637 307 838 90
131 222 247 344 303 125 57 281 70 419 35z m-492 -2051 c115 -34 190 -109 224
-224 25 -82 22 -92 -32 -110 -209 -72 -469 21 -601 213 l-44 64 24 13 c38 21
147 56 202 64 67 10 146 3 227 -20z"/>
</g>
</svg>
