<svg xmlns="http://www.w3.org/2000/svg" viewBox="0 0 42.29 36.7"><defs><style>.cls-1{fill:#fff;}</style></defs><title>protoquickwebsiteAsset 5</title><g id="Layer_2" data-name="Layer 2"><g id="Layer_1-2" data-name="Layer 1"><path class="cls-1" d="M17.1,23.06c-1.67.7-3.54,1.35-5.28,2.27-1.26.67-3,1.51-3.34,2.62-.76,2.77-.83,5.74-1.18,8.76H10.7c.12-.25.23-.36.23-.47,0-1.73,0-3.46.08-5.2.08-2.66,1.33-3.88,3.92-3.88,4,0,8.09,0,12.14,0,3.14,0,4.25,1.12,4.28,4.31,0,1.71,0,3.42,0,5.15H34.9a36.6,36.6,0,0,1-.2-4.18c.31-4.73-2.48-6.9-6.49-8.19-1.11-.36-2.17-.89-3-1.23,0,0,.07-.09,0-.1a24.55,24.55,0,0,0-8,0c-2.3.6,5.37,0,8,0"/><path class="cls-1" d="M29.79,36.5H12.59a49.27,49.27,0,0,1,.09-6,2.57,2.57,0,0,1,1.8-1.71c4.48-.15,9-.11,13.44-.07a1.78,1.78,0,0,1,1.87,2C29.8,32.54,29.79,34.39,29.79,36.5Z"/><path class="cls-1" d="M2.59,1.68V11.6c4.18,0,8.21,0,12.23,0a9.22,9.22,0,0,1,2.49.78,8,8,0,0,1-2.38.83c-4.92.08-9.85,0-14.93,0V0H25.55C30.08,0,29.46,10.45,29,13.72c-.77-.11-1.52-10.65-1.53-10.78-.16-1.68-2.05-1.24-3.49-1.25C16.92,1.67,9.9,1.68,2.59,1.68Z"/><path class="cls-1" d="M10.29,19.93H.29v14h5s0-5.25,1.08-7,7.92-4.25,7.92-4.25V19.93Z"/><ellipse class="cls-1" cx="20.15" cy="13.72" rx="5.85" ry="8.63" transform="translate(-0.53 0.81) rotate(-2.27)"/><rect class="cls-1" x="18.48" y="17.26" width="4.89" height="9" rx="2.44" ry="2.44"/><path class="cls-1" d="M10.67,4.52l-.54-.18A1.43,1.43,0,0,0,8.4,5l-.24.52a1,1,0,0,0,.16,1.08,1.55,1.55,0,0,0-1.18.83l-.08.18A1.3,1.3,0,0,0,8,9.34a1.69,1.69,0,0,0,2-.76l.08-.18A1.17,1.17,0,0,0,10,7.23a1.35,1.35,0,0,0,1.2-.72L11.43,6A1.09,1.09,0,0,0,10.67,4.52ZM8,7.85l-.19-.06-.2.43-.16-.05.47-1,.36.12c.29.1.39.24.3.44S8.26,8,8,7.85Zm1.59.43a.68.68,0,0,1-.34.36.21.21,0,0,0,.15.15l-.05.12a.31.31,0,0,1-.23-.23.58.58,0,0,1-.25,0c-.3-.1-.39-.36-.24-.69a.58.58,0,0,1,.73-.37C9.63,7.7,9.69,8,9.55,8.28Zm1.3-2.39-.16.34a.48.48,0,0,1-.38.26.54.54,0,0,1-.25,0l-.68.26-.1,0L9,6.12a.44.44,0,0,1-.26-.22.36.36,0,0,1,0-.32l.16-.34c.1-.21.5-.5.75-.42l.93.26C10.83,5.17,11,5.68,10.85,5.89Z"/><path class="cls-1" d="M9.26,7.71c-.2-.07-.4,0-.52.31s-.07.46.14.53a.35.35,0,0,0,.18,0C9,8.48,9,8.42,9,8.4L9,8.28a.23.23,0,0,1,.16.21.63.63,0,0,0,.21-.27C9.52,8,9.46,7.77,9.26,7.71Z"/><path class="cls-1" d="M8.21,7.38,8,7.31l-.17.36.2.07c.13,0,.29.08.37-.09S8.39,7.44,8.21,7.38Z"/><path class="cls-1" d="M32.29,19.93h-5v2.75s7.84,2.5,8.92,4.25,1.08,7,1.08,7h5v-14Zm2.17,5.17a1.67,1.67,0,0,1-1.67-1.67A2.58,2.58,0,0,1,34,21.37c.74-.53,1.63,1.5,2.08,2.06S35.37,25.1,34.45,25.1Z"/></g></g></svg>