<svg xmlns="http://www.w3.org/2000/svg" viewBox="0 0 51.61 48.54"><defs><style>.cls-1{fill:#fff;}</style></defs><title>protoquickwebsiteAsset 8</title><g id="Layer_2" data-name="Layer 2"><g id="Layer_1-2" data-name="Layer 1"><path class="cls-1" d="M29.44,31H50.35l.11,1.14H46.95c-11.08,0-13.89,0-15.64,0a7.6,7.6,0,0,1-2-.61Z"/><path class="cls-1" d="M45.49,37.05l1.79,1.72s-.75,1.74-1.75,1.75-1.82-1.71-1.82-1.71Z"/><path class="cls-1" d="M51.54,47.4a10,10,0,0,1-1.74-.19c0-3.93,0-7.8,0-11.68,0-1.91-.32-2.25-2.19-2.25H33c-1.79,0-2.13.37-2.13,2.19q0,5.42,0,10.85c0,.67,0,1.28-1.11.94,0-2.62,0-5.25,0-7.89,0-1.32,0-2.65,0-4,0-1.64-.48-2.11-2.14-2.12-1.83,0-3.66,0-5.71-.16,2.63-1.83,2.84-4.45,2.8-7.31.79.9,1.61,1.78,2.37,2.71a3.46,3.46,0,0,0,2.86,1.35c5.31,0,10.62,0,15.93,0,1.21,0,1.78-.5,1.77-1.73,0-2.34,0-4.67,0-7,0-1.13-.52-1.7-1.7-1.67-1.79,0-2.7,0-4.72,0,2.09-2.72,3.29-4.5,5.17-7a5.48,5.48,0,0,0,1.32-3.61c0-1.37-.08-2.74,0-4.1a3.22,3.22,0,0,0-2-3.38,13.58,13.58,0,0,0-11.93,0,3,3,0,0,0-1.89,3.17,31.85,31.85,0,0,1,0,4.1,5.4,5.4,0,0,0,1.58,4.17c1.91,2.11,3.08,4.29,5.09,6.63-2.77,0-4.7.11-7.26,0a5.19,5.19,0,0,0-5,2.26,22.25,22.25,0,0,1-1.79,2c0-1.52,0-2.73,0-3.94,0-1.81-.45-2.28-2.24-2.29L2.77,17.36H1.84c-2.4-.31-1.77.42-1.77.78q0,12.54,0,25.08c0,3.27,2,5.27,5.24,5.28h23.3c7.67,0,15.34-.09,23,0A4.83,4.83,0,0,1,51.54,47.4Zm-17.2-45c3.78-1.73,5.44-2.62,9.21-.81,1.34.65,4.58,2.44,3.18,3-1.8.71-4.54.27-6.53.27s-4,.5-5.73-.18C33,4.06,32.95,3,34.34,2.36ZM36.49,8c-.1,1.31,0,2.63,0,4.1-2.38-1.58-1.78-3.78-1.76-5.9C35.92,6.27,36.59,6.66,36.49,8Zm1.16-.76c1-2.85,1.31-2.77,1.74,0,0,2.78,0,5.54,0,8.49C36.58,13.26,38.29,10.13,37.66,7.27ZM5.13,18.78H20.26V29.11H5.13ZM28.47,46.25c0,.39,0,.78-.06,1.25H20.83a1.46,1.46,0,0,1-.11-.33c-.07-3.42,3.28-3.42-.07-3.42H10.06c-1.88,0,0,.35,0,2.21,0,.48,0,1,0,1.5a46.4,46.4,0,0,1-5.82-.06,3.41,3.41,0,0,1-3.07-3.18C1,41,1.1,37.83,1.1,34.55c.49,0,.91-.06,1.34-.06,8.2,0,16.39,0,24.59,0,1.17,0,1.49.33,1.47,1.49C28.42,39.38,28.47,42.82,28.47,46.25Zm20,1.22H32.14c0-1.64,0-3.22,0-4.79q0-3.57,0-7.13c0-.55,0-1.06.78-1.06l15.24.06c.07,0,.15.08.3.16Z"/></g></g></svg>